<svg xmlns="http://www.w3.org/2000/svg" viewBox="0 0 24 24" width="24" height="24">
  <!-- 背景 -->
  <rect x="2" y="2" width="26" height="26" rx="4" fill="#3498db"/>
  
  <!-- 提交图标元素 -->
  <path d="M12 6v6l4 2" stroke="white" stroke-width="2" fill="none" stroke-linecap="round" stroke-linejoin="round"/>
  <circle cx="12" cy="16" r="2" fill="white"/>
  
  <!-- AI 元素 - 大脑轮廓 -->
  <path d="M8 12c0-2 1-3.5 2-4.5s3-1.5 5-1.5c2 0 4 1 5 2.5S20 10 20 12c0 2-1 3.5-2 4.5s-3 1.5-5 1.5c-2 0-4-1-5-2.5S8 14 8 12z" stroke="white" stroke-width="1.5" fill="none"/>
  <path d="M8 12h8" stroke="white" stroke-width="1.5" fill="none"/>
  <path d="M12 8v8" stroke="white" stroke-width="1.5" fill="none"/>
</svg>