<?xml version="1.0" encoding="UTF-8"?>
<svg width="16" height="16" viewBox="0 0 24 24" fill="none" xmlns="http://www.w3.org/2000/svg">
  <!-- 渐变背景 - 蓝色到深紫色，表示AI智能 -->
  <defs>
    <linearGradient id="aiGradient" x1="0%" y1="0%" x2="100%" y2="100%">
      <stop offset="0%" stop-color="#4361ee"/>
      <stop offset="100%" stop-color="#7209b7"/>
    </linearGradient>
  </defs>
  
  <!-- 星星主体 -->
  <path d="M12 2L14.5 9.5L22 9.5L16.5 14.5L19 22L12 17.5L5 22L7.5 14.5L2 9.5L9.5 9.5L12 2Z" 
        fill="url(#aiGradient)"/>
  
  <!-- 星星中心的AI符号 - 简化的大脑/神经图案 -->
  <path d="M12 9.5C13.3807 9.5 14.5 10.6193 14.5 12C14.5 13.3807 13.3807 14.5 12 14.5C10.6193 14.5 9.5 13.3807 9.5 12C9.5 10.6193 10.6193 9.5 12 9.5Z" 
        stroke="white" stroke-width="1" fill="none"/>
  <path d="M10.5 11L13.5 11M12 9.5L12 12.5" 
        stroke="white" stroke-width="1" stroke-linecap="round"/>
  
  <!-- 环绕星星的AI能量效果 -->
  <path d="M12 1.5C16.6944 1.5 20.5 5.30558 20.5 10C20.5 10.7162 20.4022 11.4125 20.2182 12.0762C19.4545 12.1398 18.7354 12 18 12C13.6863 12 10 15.6863 10 20C9.99999 19.2646 10.1398 18.5455 10.2182 17.7818C9.58747 17.5978 8.90617 17.4999 8.21426 17.5C3.83013 17.5 0.5 14.1699 0.5 9.78574C0.5 4.75452 4.75452 0.5 9.78574 0.5C10.4776 0.500002 11.159 0.608841 11.8072 0.80356C11.8573 1.0384 11.9004 1.27951 11.9361 1.52622C12.2835 1.54575 12.6304 1.5 13 1.5" 
        stroke="url(#aiGradient)" stroke-width="0.8" fill="none" opacity="0.7"/>
</svg>